<?xml version="1.0" encoding="UTF-8"?>
<svg width="1240" height="1754" viewBox="0 0 1240 1754" fill="none" xmlns="http://www.w3.org/2000/svg">
<rect width="1240" height="1754" fill="#F7F3EE"/>
<rect x="70" y="70" width="1100" height="1614" rx="34" fill="#FFFFFF" stroke="#E7D8C9" stroke-width="2"/>
<image href="https://www.jvision-ai.com/public/logo.png" x="108" y="112" width="214" height="60" preserveAspectRatio="xMinYMid meet"/>
<text x="108" y="266" fill="#B45309" font-family="Arial, Microsoft JhengHei, sans-serif" font-size="30" font-weight="700">Jvision Self-Care Experience Platform</text>
<text x="108" y="356" fill="#1F2A37" font-family="Arial, Microsoft JhengHei, sans-serif" font-size="68" font-weight="800">自我照護體驗平台 Demo</text>
<text x="108" y="442" fill="#1F2A37" font-family="Arial, Microsoft JhengHei, sans-serif" font-size="50" font-weight="800">預約、排班、POS、會員與行銷一套完成</text>
<text x="108" y="526" fill="#667085" font-family="Arial, Microsoft JhengHei, sans-serif" font-size="30">整合自助預約、客戶檔案、表單紀錄、POS 結帳與多店報表。</text>
<text x="108" y="574" fill="#667085" font-family="Arial, Microsoft JhengHei, sans-serif" font-size="30">掃描 QR Code 可直接進入線上互動 Demo。</text>
<rect x="108" y="672" width="1024" height="420" rx="28" fill="#1F2A37"/>
<rect x="158" y="728" width="292" height="280" rx="22" fill="#FFFFFF"/>
<rect x="474" y="728" width="292" height="280" rx="22" fill="#FFF7ED"/>
<rect x="790" y="728" width="292" height="280" rx="22" fill="#FFFFFF"/>
<text x="190" y="806" fill="#B45309" font-family="Arial, Microsoft JhengHei, sans-serif" font-size="32" font-weight="800">自助預約</text>
<text x="190" y="874" fill="#1F2A37" font-family="Arial, Microsoft JhengHei, sans-serif" font-size="26">智慧排班</text>
<text x="190" y="932" fill="#1F2A37" font-family="Arial, Microsoft JhengHei, sans-serif" font-size="26">候補提醒</text>
<text x="506" y="806" fill="#B45309" font-family="Arial, Microsoft JhengHei, sans-serif" font-size="32" font-weight="800">客戶體驗</text>
<text x="506" y="874" fill="#1F2A37" font-family="Arial, Microsoft JhengHei, sans-serif" font-size="26">檔案表單</text>
<text x="506" y="932" fill="#1F2A37" font-family="Arial, Microsoft JhengHei, sans-serif" font-size="26">偏好紀錄</text>
<text x="822" y="806" fill="#B45309" font-family="Arial, Microsoft JhengHei, sans-serif" font-size="32" font-weight="800">營收成長</text>
<text x="822" y="874" fill="#1F2A37" font-family="Arial, Microsoft JhengHei, sans-serif" font-size="26">POS 會員</text>
<text x="822" y="932" fill="#1F2A37" font-family="Arial, Microsoft JhengHei, sans-serif" font-size="26">訊息行銷</text>
<text x="108" y="1192" fill="#1F2A37" font-family="Arial, Microsoft JhengHei, sans-serif" font-size="38" font-weight="800">適用情境</text>
<text x="108" y="1260" fill="#667085" font-family="Arial, Microsoft JhengHei, sans-serif" font-size="30">沙龍、SPA、美療、醫美、按摩、指甲店、理髮店與多據點品牌。</text>
<text x="108" y="1352" fill="#1F2A37" font-family="Arial, Microsoft JhengHei, sans-serif" font-size="38" font-weight="800">掃描 QR Code 進入 Demo</text>
<text x="108" y="1410" fill="#667085" font-family="Arial, Microsoft JhengHei, sans-serif" font-size="26">https://jvision-self-care-platform.vercel.app</text>
<rect x="852" y="1238" width="280" height="280" rx="24" fill="#FFFFFF" stroke="#E7D8C9" stroke-width="2"/>
<g transform="translate(867 1253)"><path fill="#ffffff" d="M0 0h35v35H0z"/><path stroke="#1F2A37" d="M1 1.5h7m1 0h3m2 0h1m1 0h2m1 0h1m4 0h1m2 0h7M1 2.5h1m5 0h1m3 0h1m1 0h3m1 0h1m1 0h2m6 0h1m5 0h1M1 3.5h1m1 0h3m1 0h1m2 0h1m4 0h5m1 0h4m2 0h1m1 0h3m1 0h1M1 4.5h1m1 0h3m1 0h1m1 0h5m2 0h3m1 0h1m1 0h2m1 0h1m1 0h1m1 0h3m1 0h1M1 5.5h1m1 0h3m1 0h1m1 0h1m1 0h1m2 0h1m2 0h1m2 0h1m1 0h1m1 0h1m2 0h1m1 0h3m1 0h1M1 6.5h1m5 0h1m1 0h1m2 0h1m1 0h1m1 0h1m1 0h2m1 0h3m1 0h1m1 0h1m5 0h1M1 7.5h7m1 0h1m1 0h1m1 0h1m1 0h1m1 0h1m1 0h1m1 0h1m1 0h1m1 0h1m1 0h7M9 8.5h2m1 0h2m4 0h5m1 0h1M1 9.5h1m3 0h1m1 0h4m2 0h1m2 0h1m1 0h1m2 0h3m1 0h6m2 0h1M2 10.5h1m3 0h1m1 0h1m1 0h1m2 0h1m1 0h5m1 0h2m1 0h1m1 0h1m3 0h3M2 11.5h3m2 0h2m4 0h5m1 0h1m4 0h2m4 0h1m1 0h1M2 12.5h1m7 0h1m3 0h1m1 0h1m3 0h2m1 0h1m2 0h2m5 0h1M2 13.5h4m1 0h4m2 0h2m1 0h2m2 0h1m2 0h1m3 0h1m1 0h2m1 0h2M3 14.5h1m1 0h2m2 0h1m1 0h1m1 0h1m1 0h1m3 0h4m1 0h1m1 0h1m1 0h1m1 0h1M1 15.5h1m1 0h5m1 0h1m2 0h1m2 0h2m1 0h1m2 0h1m2 0h5m3 0h1M1 16.5h2m2 0h1m2 0h1m1 0h3m2 0h5m2 0h3m1 0h5M1 17.5h1m2 0h1m1 0h5m1 0h2m4 0h1m1 0h3m4 0h1m1 0h1m2 0h1M2 18.5h1m1 0h1m10 0h3m6 0h1m1 0h1m3 0h2M1 19.5h2m3 0h2m1 0h3m4 0h3m3 0h5m1 0h1m1 0h1m1 0h1M2 20.5h1m2 0h1m2 0h1m1 0h3m1 0h6m1 0h2m1 0h1m1 0h1m1 0h1m3 0h2M4 21.5h1m1 0h4m1 0h3m1 0h1m3 0h1m1 0h1m2 0h2m1 0h4M1 22.5h1m8 0h2m1 0h3m1 0h1m2 0h1m1 0h3m1 0h1m1 0h1m1 0h1m1 0h1M3 23.5h2m1 0h3m2 0h2m1 0h1m2 0h1m2 0h1m1 0h1m1 0h1m2 0h1m1 0h4M3 24.5h2m5 0h1m4 0h1m2 0h1m1 0h3m2 0h1m1 0h1m1 0h1m2 0h1M1 25.5h2m1 0h1m1 0h2m2 0h1m4 0h4m2 0h10M9 26.5h2m2 0h7m2 0h2m1 0h1m3 0h1m1 0h2M1 27.5h7m1 0h1m2 0h3m1 0h1m2 0h1m1 0h1m3 0h1m1 0h1m1 0h2m1 0h1M1 28.5h1m5 0h1m2 0h1m1 0h1m1 0h3m4 0h1m1 0h1m1 0h1m3 0h1m3 0h1M1 29.5h1m1 0h3m1 0h1m1 0h2m1 0h1m1 0h1m1 0h2m2 0h1m2 0h1m1 0h6m2 0h1M1 30.5h1m1 0h3m1 0h1m2 0h1m1 0h1m6 0h3m5 0h6M1 31.5h1m1 0h3m1 0h1m3 0h3m2 0h1m1 0h2m1 0h1m1 0h1m2 0h6M1 32.5h1m5 0h1m2 0h1m1 0h1m2 0h5m2 0h1m1 0h4M1 33.5h7m1 0h3m6 0h6m1 0h3m5 0h1"/>
</g>
<rect x="108" y="1574" width="486" height="4" fill="#B45309"/>
<text x="108" y="1632" fill="#667085" font-family="Arial, Microsoft JhengHei, sans-serif" font-size="24">Jvision AI | 自我照護體驗平台互動展示</text>
</svg>